<?xml version="1.0" encoding="UTF-8"?>
<svg xmlns="http://www.w3.org/2000/svg" xmlns:xlink="http://www.w3.org/1999/xlink" width="960" height="540" viewBox="0 0 960 540">
<rect x="-96" y="-54" width="1152" height="648" fill="rgb(0%, 10%, 30%)" fill-opacity="1"/>
<path fill-rule="nonzero" fill="rgb(0%, 20%, 40%)" fill-opacity="1" d="M 0 85 L 50.527344 105 L 101.050781 72 L 151.578125 119 L 202.105469 85 L 252.632813 95 L 303.15625 62 L 353.683594 93 L 404.210938 92 L 454.738281 89 L 505.261719 99 L 555.789063 104 L 606.316406 70 L 656.84375 120 L 707.367188 81 L 757.894531 105 L 808.421875 63 L 858.949219 88 L 909.472656 75 L 960 96 L 960 540 L 0 540 "/>
<path fill-rule="nonzero" fill="rgb(0%, 30%, 50%)" fill-opacity="1" d="M 0 189 L 50.527344 190 L 101.050781 150 L 151.578125 149 L 202.105469 155 L 252.632813 175 L 303.15625 215 L 353.683594 210 L 404.210938 207 L 454.738281 190 L 505.261719 212 L 555.789063 160 L 606.316406 175 L 656.84375 173 L 707.367188 164 L 757.894531 146 L 808.421875 189 L 858.949219 178 L 909.472656 184 L 960 175 L 960 540 L 0 540 "/>
<path fill-rule="nonzero" fill="rgb(0%, 40%, 60%)" fill-opacity="1" d="M 0 289 L 50.527344 292 L 101.050781 242 L 151.578125 246 L 202.105469 278 L 252.632813 236 L 303.15625 286 L 353.683594 265 L 404.210938 246 L 454.738281 235 L 505.261719 303 L 555.789063 247 L 606.316406 263 L 656.84375 235 L 707.367188 279 L 757.894531 280 L 808.421875 271 L 858.949219 290 L 909.472656 277 L 960 273 L 960 540 L 0 540 "/>
<path fill-rule="nonzero" fill="rgb(0%, 50%, 70%)" fill-opacity="1" d="M 0 341 L 50.527344 369 L 101.050781 373 L 151.578125 350 L 202.105469 326 L 252.632813 370 L 303.15625 337 L 353.683594 340 L 404.210938 384 L 454.738281 395 L 505.261719 339 L 555.789063 327 L 606.316406 365 L 656.84375 371 L 707.367188 335 L 757.894531 357 L 808.421875 334 L 858.949219 342 L 909.472656 348 L 960 334 L 960 540 L 0 540 "/>
<path fill-rule="nonzero" fill="rgb(0%, 60%, 80%)" fill-opacity="1" d="M 0 479 L 50.527344 458 L 101.050781 474 L 151.578125 471 L 202.105469 436 L 252.632813 426 L 303.15625 430 L 353.683594 418 L 404.210938 481 L 454.738281 476 L 505.261719 480 L 555.789063 484 L 606.316406 471 L 656.84375 426 L 707.367188 455 L 757.894531 470 L 808.421875 421 L 858.949219 445 L 909.472656 431 L 960 449 L 960 540 L 0 540 "/>
</svg>
